# xmcd
#
# Track frame offsets:
#	150
#	15418
#	32822
#	47498
#	64442
#	82490
#	95666
#	109558
#	123352
#	140652
#	159011
#	172429
#	191624
#	209092
#	226243
#	243321
#	258211
#	276325
#	293075
#	306275
#	324630
#
# Disc length: 4542 seconds
#
# Revision: 1
# Processed by: cddbd v1.5.2PL0 Copyright (c) Steve Scherf et al.
# Submitted via: audiograbber 1.83.01
#
DISCID=3a11bc15
DTITLE=Various Artist - nu country traxx
DYEAR=2009
DGENRE=country
TTITLE0=Kenny Chesney - Out Last Night
TTITLE1=Darius Rucker - Alright
TTITLE2=Charlie Allen - Proof
TTITLE3=Miranda Lambert - Dead Flowers
TTITLE4=Hank Williams , Jr - Red White And Pink Slip Blues
TTITLE5=Steve Azar - Moo La Moo
TTITLE6=Joe Nickols - Believers
TTITLE7=Mac Mcanally - You First
TTITLE8=Taylor Swift You Belong With Me
TTITLE9=Bucky Covington - I Want My Life Back
TTITLE10=Reba - Strange
TTITLE11=Heidi Newfield - What Am I Waiting For
TTITLE12=Billy Mcknight And Mindy Mccready - Sweeter
TTITLE13=One Flew South - Life
TTITLE14=James Otto - Since You Brought It Up
TTITLE15=Krista Marie - Jeep Jeep
TTITLE16=Richie Mcdonald - Six-Foot Teddy Bear
TTITLE17=Cater Tiwns - Heart Like Memphis 
TTITLE18=Wynonna - I Hear You Knocking
TTITLE19=Due West - I Get That All The Time
TTITLE20=Kate And Kacey - Dreaming Love
EXTD=
EXTT0=
EXTT1=
EXTT2=
EXTT3=
EXTT4=
EXTT5=
EXTT6=
EXTT7=
EXTT8=
EXTT9=
EXTT10=
EXTT11=
EXTT12=
EXTT13=
EXTT14=
EXTT15=
EXTT16=
EXTT17=
EXTT18=
EXTT19=
EXTT20=
PLAYORDER=
